<?xml version="1.0" encoding="utf-8"?>
<!-- Generator: Adobe Illustrator 25.2.2, SVG Export Plug-In . SVG Version: 6.00 Build 0)  -->
<svg version="1.1" id="Livello_1" xmlns="http://www.w3.org/2000/svg" xmlns:xlink="http://www.w3.org/1999/xlink" x="0px" y="0px"
	 viewBox="0 0 992 1024" style="enable-background:new 0 0 992 1024;" xml:space="preserve">
<style type="text/css">
	.st0{fill:#60A9AD;}
</style>
<path class="st0" d="M256,320H32c-8.7,0-16.2,3.2-22.5,9.5S0,343.3,0,352v640c0,8.7,3.2,16.2,9.5,22.5s13.8,9.5,22.5,9.5h224
	c8.7,0,16.2-3.2,22.5-9.5s9.5-13.8,9.5-22.5V352c0-8.7-3.2-16.2-9.5-22.5S264.7,320,256,320z M224,960H64V384h160V960z M608,510H384
	c-9.3,0-17,3.2-23,9.5s-9,13.8-9,22.5v450c0,8.7,3,16.2,9,22.5s13.7,9.5,23,9.5h224c8.7,0,16.2-3.2,22.5-9.5s9.5-13.8,9.5-22.5V542
	c0-8.7-3.2-16.2-9.5-22.5S616.7,510,608,510z M576,960H416V574h160V960z M960,0H736c-8.7,0-16.2,3.2-22.5,9.5S704,23.3,704,32v960
	c0,8.7,3.2,16.2,9.5,22.5s13.8,9.5,22.5,9.5h224c8.7,0,16.2-3.2,22.5-9.5s9.5-13.8,9.5-22.5V32c0-8.7-3.2-16.2-9.5-22.5
	S968.7,0,960,0z M928,960H768V64h160V960z"/>
</svg>
