<?xml version="1.0" encoding="utf-8"?>
<!-- Generator: Adobe Illustrator 25.2.2, SVG Export Plug-In . SVG Version: 6.00 Build 0)  -->
<svg version="1.1" id="Livello_1" xmlns="http://www.w3.org/2000/svg" xmlns:xlink="http://www.w3.org/1999/xlink" x="0px" y="0px"
	 viewBox="0 0 864 1024" style="enable-background:new 0 0 864 1024;" xml:space="preserve">
<style type="text/css">
	.st0{fill:#60A9AD;}
</style>
<path class="st0" d="M850,414c0-24-1.8-47.7-5.5-71s-9-46.2-16-68.5S813,230.7,803,210s-21.7-40.7-35-60s-28-37.7-44-55
	s-33.5-33.5-52.5-48.5S632.7,17.7,612,5c-5.3-3.3-10.8-5-16.5-5s-11,1.5-16,4.5S570.7,11.3,568,16c-4.7,8-5.8,16.2-3.5,24.5
	S571.7,55.3,579,60c64.7,38,115.3,88.3,152,151s55,130.3,55,203c0,60-10.5,116-31.5,168s-50,96.3-87,133s-81.3,65.5-133,86.5
	S427,833,367,833c-8.7,0-17.5-0.3-26.5-1s-18-1.5-27-2.5s-17.8-2.3-26.5-4s-17.2-3.7-25.5-6c-8.3-2.3-16.8-4.8-25.5-7.5
	s-17-5.7-25-9s-16.2-3.3-24.5,0s-14.2,9-17.5,17s-3.2,16.2,0.5,24.5S179,858.7,187,862c57.3,23.3,117.3,35,180,35h1v63h-93
	c-9.3,0-17.3,3-24,9c-6.7,6-10,13.5-10,22.5s3.3,16.7,10,23c6.7,6.3,14.7,9.5,24,9.5h253c9.3,0,17.2-3.2,23.5-9.5s9.5-14,9.5-23
	s-3.2-16.5-9.5-22.5s-14.2-9-23.5-9h-97v-67c124-14.7,224.8-66,302.5-154S850,542.7,850,414z M719,417c0-38-5.8-75-17.5-111
	s-28.3-68.5-50-97.5s-47-54.3-76-76S514,94,478,82s-73-18-111-18c-48,0-93.7,9.3-137,28s-80.8,43.8-112.5,75.5s-56.7,69.3-75,113
	S15,369.7,15,417c0,64,15.7,123,47,177s74,96.7,128,128s113,47,177,47c48,0,93.7-9.3,137-28s80.8-43.7,112.5-75s56.7-68.7,75-112
	S719,465,719,417z M78,417c0-52,13-100.2,39-144.5S178.2,193,222.5,167S315,128,367,128c79.3,0,147.2,28.3,203.5,85
	S655,337.7,655,417c0,39.3-7.5,76.7-22.5,112S597,594.8,571,620.5s-56.7,46.2-92,61.5s-72.7,23-112,23c-79.3,0-147.3-28.2-204-84.5
	S78,496.3,78,417z"/>
</svg>
