<?xml version="1.0" encoding="utf-8"?>
<!-- Generator: Adobe Illustrator 25.2.2, SVG Export Plug-In . SVG Version: 6.00 Build 0)  -->
<svg version="1.1" id="Livello_1" xmlns="http://www.w3.org/2000/svg" xmlns:xlink="http://www.w3.org/1999/xlink" x="0px" y="0px"
	 viewBox="0 0 1024 960" style="enable-background:new 0 0 1024 960;" xml:space="preserve">
<style type="text/css">
	.st0{fill:#60A9AD;}
</style>
<path class="st0" d="M960,159H704V97c0-17.3-4.2-33.3-12.5-48s-20-26.3-35-35S625.3,1,608,1H416c-26.7,0-49.3,9.5-68,28.5
	S320,71,320,97v62H64c-17.3,0-32.3,6.3-45,19S0,205.7,0,223v672c0,17.3,6.3,32.3,19,45s27.7,19,45,19h896c17.3,0,32.3-6.3,45-19
	s19-27.7,19-45V223c0-11.3-2.8-21.8-8.5-31.5S1002,174,992,168S971.3,159,960,159z M384,97c0-8.7,3.2-16.2,9.5-22.5S407.3,65,416,65
	h192c9.3,0,17,3.2,23,9.5s9,13.8,9,22.5v62H384V97z M64,223h896v225H608v-33c0-11.3-3-22-9-32s-13.8-17.8-23.5-23.5
	S555.3,351,544,351h-64c-18,0-33.2,6.3-45.5,19S416,397.7,416,415v33H64V223z M544,576h-64V415h64V576z M64,895V512h352v64
	c0,18,6.2,33.2,18.5,45.5S462,640,480,640h64c11.3,0,21.8-2.8,31.5-8.5S593,618,599,608s9-20.7,9-32v-64h352v383H64z"/>
</svg>
