<?xml version="1.0" encoding="utf-8"?>
<!-- Generator: Adobe Illustrator 25.2.2, SVG Export Plug-In . SVG Version: 6.00 Build 0)  -->
<svg version="1.1" id="Livello_1" xmlns="http://www.w3.org/2000/svg" xmlns:xlink="http://www.w3.org/1999/xlink" x="0px" y="0px"
	 viewBox="0 0 1024 1024" style="enable-background:new 0 0 1024 1024;" xml:space="preserve">
<style type="text/css">
	.st0{fill:#60A9AD;}
</style>
<path class="st0" d="M934,66c8.7,0,16,1,22,3c1.3,4,2.2,9,2.5,15s0,13.7-1,23s-4.7,19.7-11,31s-14.8,22.3-25.5,33L690,402l2,28
	c2.7,50.7,8,137.3,16,260c6,107.3,9.3,162.7,10,166c0,4-1.3,7.7-4,11c-4.7,4.7-10.7,11.3-18,20s-15.3,17.7-24,27
	c-39.3-104.7-72-193.7-98-267l-35-94l-71,71L338,749l-19,19v25c-0.7,12.7-0.7,42.7,0,90v54l1,1l2,1c-4-6.7-6.7-11.3-8-14l-6-9
	c-38.7-61.3-61.3-97.7-68-109l-9-13l-13-9c-45.3-27.3-90.3-55.3-135-84c0.7,0,1.3,0.7,2,2l1,1h67.5l9.5,0.5l10.5,0.5H231l26-1l18-18
	l126-130l71-71l-94-34c-72.7-26.7-162.3-60-269-100c9.3-9.3,18.2-17.7,26.5-25s15.2-13,20.5-17l7-4h2c4.7,0,64.7,3.7,180,11
	c126,8.7,209,14,249,16l29,2l231-231C878.7,78.3,905.3,66,934,66z M934,2c-20.7,0-41.8,4.5-63.5,13.5S828.3,38.7,809,58L598,268
	c-21.3-1.3-50.8-3.2-88.5-5.5s-75.2-4.7-112.5-7c-37.3-2.3-73.3-4.7-108-7s-63.2-4.2-85.5-5.5s-34.2-2-35.5-2h-5
	c-4,0-8.2,0.3-12.5,1s-9.8,2.3-16.5,5c-6.7,2.7-13,6.7-19,12l-73,66c-12.7,12.7-18,26.3-16,41c1.3,14.7,10,25.3,26,32
	c42,16.7,143.3,54.3,304,113L230,641h-20c-14,0-36.2-0.2-66.5-0.5S94.7,640,88,640H73.5l-5,0.5L62,642l-8,3.5L44,651l-11.5,7.5
	L19,669l-3,3c-9.3,10-14.3,20.7-15,32s4,21,14,29c14.7,12,71.3,47.7,170,107c7.3,12,31.7,50.7,73,116c18.7,30.7,28.7,47,30,49
	c6.7,10.7,16.3,16.3,29,17h1c12,0,23.7-5.7,35-17c4.7-5.3,8.8-10.5,12.5-15.5S372,980,374,976l5-10l2.5-8.5l1-6.5v-5l-0.5-3
	c0.7-6.7,0.8-29.7,0.5-69s-0.2-65.7,0.5-79l130-126c15.3,42,37,101,65,177s43.7,117.7,47,125c6,15.3,16.3,24,31,26h5
	c6,0,12.2-1.5,18.5-4.5s12.2-7.2,17.5-12.5c3.3-3.3,7.8-8,13.5-14s14.3-15.5,26-28.5S757,914.3,763,907c13.3-16,19.3-34,18-54
	c0-1.3-1.5-28.7-4.5-82s-6.7-115.8-11-187.5S758,459.7,756,427l211-211c17.3-18,30.8-37.2,40.5-57.5s14.8-39.2,15.5-56.5
	s-0.8-33-4.5-47s-9.2-24.3-16.5-31C987.3,9.3,964.7,2,934,2z"/>
</svg>
