<?xml version="1.0" encoding="utf-8"?>
<!-- Generator: Adobe Illustrator 25.2.2, SVG Export Plug-In . SVG Version: 6.00 Build 0)  -->
<svg version="1.1" id="Livello_1" xmlns="http://www.w3.org/2000/svg" xmlns:xlink="http://www.w3.org/1999/xlink" x="0px" y="0px"
	 viewBox="0 0 1024 896" style="enable-background:new 0 0 1024 896;" xml:space="preserve">
<style type="text/css">
	.st0{fill:#60A9AD;}
</style>
<path class="st0" d="M1023,446L905,39c-0.7-4.7-2.7-8.8-6-12.5s-7-6.5-11-8.5s-8.3-3-13-3H139c-4.7,0-9.2,1-13.5,3
	c-4.3,2-8,4.8-11,8.5s-5.2,7.8-6.5,12.5L1,426c-0.7,3.3-0.8,6.8-0.5,10.5S1.7,443.7,3,447c-2,6.7-3,12.7-3,18v352
	c0,17.3,6.2,32.3,18.5,45S46,881,64,881h896c18,0,33.2-6.3,45.5-19s18.5-27.7,18.5-45V460C1024,454.7,1023.7,450,1023,446z M164,79
	h686l93,322H645c0,15.3-2.2,29.7-6.5,43S628,469.3,620,480s-17.3,19.8-28,27.5c-10.7,7.7-22.8,13.5-36.5,17.5s-28.2,6-43.5,6
	c-19.3,0-37-3.2-53-9.5s-29.8-15.2-41.5-26.5s-20.8-25-27.5-41s-10-33.7-10-53H74L164,79z M960,817H64V465h263
	c14,40.7,37.3,72.5,70,95.5S468,595,512,595c29.3,0,56.5-5.2,81.5-15.5s46.3-25.3,64-45s31.2-42.8,40.5-69.5h262V817z"/>
</svg>
